<svg xmlns="http://www.w3.org/2000/svg" viewBox="0 0 750 500"><g id="freepik--background-complete--inject-108"><path d="M688.65,234l5.88-9.49-2.9-1.8a2.67,2.67,0,0,1-1.24-2.5,15.54,15.54,0,0,0,.06-1.67,2.63,2.63,0,0,1,1.38-2.41l3-1.62-5.29-9.84-3,1.61a2.62,2.62,0,0,1-2.77-.18,16,16,0,0,0-1.42-.88,2.65,2.65,0,0,1-1.4-2.4l.11-3.42L669.9,199l-.1,3.43a2.66,2.66,0,0,1-1.55,2.31l-.74.37-.71.41a2.65,2.65,0,0,1-2.78,0l-2.92-1.81-5.89,9.49,2.91,1.8a2.66,2.66,0,0,1,1.23,2.5,13.25,13.25,0,0,0-.05,1.67,2.65,2.65,0,0,1-1.39,2.4l-3,1.62,5.28,9.84,3-1.61a2.62,2.62,0,0,1,2.77.18,15.87,15.87,0,0,0,1.42.87,2.66,2.66,0,0,1,1.4,2.41l-.11,3.42,11.17.35.1-3.43a2.65,2.65,0,0,1,1.56-2.3l.74-.37.71-.41a2.67,2.67,0,0,1,2.79,0Zm-9.46-7a9.15,9.15,0,1,1,3.75-12.39A9.14,9.14,0,0,1,679.19,226.93Z" style="fill:#ebebeb"></path><path d="M213.42,63.71l-3.91-6.77-2.08,1.2a1.87,1.87,0,0,1-2-.07,11.12,11.12,0,0,0-1-.59,1.84,1.84,0,0,1-1-1.65V53.44h-7.83v2.39a1.85,1.85,0,0,1-1,1.65c-.35.18-.69.38-1,.59a1.87,1.87,0,0,1-1.95.07l-2.07-1.2-3.91,6.77,2.08,1.2a1.87,1.87,0,0,1,.91,1.73c0,.19,0,.38,0,.58s0,.38,0,.57a1.86,1.86,0,0,1-.9,1.72l-2.09,1.21,3.91,6.77,2.08-1.2a1.87,1.87,0,0,1,2,.07,11.12,11.12,0,0,0,1,.59,1.86,1.86,0,0,1,1,1.65V81h7.83V78.6a1.85,1.85,0,0,1,1-1.65c.35-.18.68-.38,1-.59a1.87,1.87,0,0,1,2-.07l2.08,1.2,3.91-6.77-2.08-1.2a1.85,1.85,0,0,1-.91-1.72c0-.2,0-.39,0-.58s0-.39,0-.58a1.86,1.86,0,0,1,.91-1.73Zm-7.48,3.51a6.41,6.41,0,1,1-6.41-6.42A6.41,6.41,0,0,1,205.94,67.22Z" style="fill:#ebebeb"></path><path d="M82,244.27a30.48,30.48,0,1,0,30.48,30.48A30.47,30.47,0,0,0,82,244.27ZM82,289a14.23,14.23,0,1,1,14.24-14.22A14.22,14.22,0,0,1,82,289Z" style="fill:#ebebeb"></path><polygon points="87.89 245.54 76.17 245.54 76.82 237.24 87.25 237.24 87.89 245.54" style="fill:#ebebeb"></polygon><polygon points="65.59 249.49 57.3 257.77 51.9 251.45 59.27 244.08 65.59 249.49" style="fill:#ebebeb"></polygon><polygon points="52.61 268.05 52.61 279.77 44.31 279.12 44.31 268.7 52.61 268.05" style="fill:#ebebeb"></polygon><polygon points="56.56 290.35 64.84 298.64 58.52 304.05 51.15 296.68 56.56 290.35" style="fill:#ebebeb"></polygon><polygon points="75.12 303.33 86.84 303.33 86.19 311.63 75.77 311.63 75.12 303.33" style="fill:#ebebeb"></polygon><polygon points="97.42 299.38 105.71 291.1 111.12 297.42 103.75 304.79 97.42 299.38" style="fill:#ebebeb"></polygon><polygon points="110.4 280.82 110.4 269.1 118.7 269.75 118.7 280.17 110.4 280.82" style="fill:#ebebeb"></polygon><polygon points="106.46 258.52 98.17 250.23 104.49 244.82 111.86 252.19 106.46 258.52" style="fill:#ebebeb"></polygon><path d="M642.35,264.94a30.47,30.47,0,1,0,30.48,30.47A30.47,30.47,0,0,0,642.35,264.94Zm0,44.69a14.23,14.23,0,1,1,14.24-14.22A14.22,14.22,0,0,1,642.35,309.63Z" style="fill:#ebebeb"></path><polygon points="648.21 266.2 636.5 266.2 637.14 257.9 647.57 257.9 648.21 266.2" style="fill:#ebebeb"></polygon><polygon points="625.91 270.15 617.62 278.43 612.22 272.11 619.59 264.74 625.91 270.15" style="fill:#ebebeb"></polygon><polygon points="612.93 288.71 612.93 300.43 604.63 299.78 604.63 289.36 612.93 288.71" style="fill:#ebebeb"></polygon><polygon points="616.88 311.01 625.16 319.3 618.84 324.71 611.47 317.34 616.88 311.01" style="fill:#ebebeb"></polygon><polygon points="635.44 323.99 647.16 323.99 646.51 332.29 636.09 332.29 635.44 323.99" style="fill:#ebebeb"></polygon><polygon points="657.74 320.05 666.03 311.76 671.44 318.08 664.07 325.45 657.74 320.05" style="fill:#ebebeb"></polygon><polygon points="670.72 301.48 670.72 289.76 679.02 290.41 679.02 300.83 670.72 301.48" style="fill:#ebebeb"></polygon><polygon points="666.77 279.18 658.49 270.89 664.81 265.49 672.18 272.86 666.77 279.18" style="fill:#ebebeb"></polygon><path d="M692.37,303.22l-13.12.28-6.66.11c-2.23.05-4.47,0-6.7.06h-.44v-.45L665.39,292v-.5h.5l13.24.06c4.42,0,8.83.11,13.24.16h.28V292c0,1.9-.08,3.79-.13,5.66Zm0,0-.14-5.65c-.05-1.86-.11-3.7-.13-5.54l.27.28c-4.41.05-8.82.16-13.24.16l-13.24.06.5-.5,0,11.19-.45-.44c2.18,0,4.36,0,6.55.05L679,303Z" style="fill:#ebebeb"></path><path d="M677.6,317.33l-13.12.28-6.67.11c-2.22,0-4.46,0-6.69.06h-.44v-.45l0-11.19v-.5h.5l13.24.07c4.41,0,8.83.11,13.24.16h.28v.27c0,1.9-.08,3.79-.13,5.66Zm0,0-.14-5.65c-.05-1.86-.11-3.7-.13-5.54l.27.28c-4.41.05-8.83.16-13.24.16l-13.24.06.5-.5,0,11.19-.45-.44c2.18,0,4.36,0,6.55.05l6.57.12Z" style="fill:#ebebeb"></path><path d="M707.14,317.33l-13.12.28-6.66.11c-2.23,0-4.47,0-6.7.06h-.44v-.45l-.06-11.19v-.5h.5l13.24.07c4.42,0,8.83.11,13.24.16h.28v.27c0,1.9-.09,3.79-.13,5.66Zm0,0-.14-5.65c0-1.86-.11-3.7-.13-5.54l.27.28c-4.41.05-8.82.16-13.24.16l-13.24.06.5-.5,0,11.19-.45-.44c2.19,0,4.36,0,6.55.05l6.58.12Z" style="fill:#ebebeb"></path><path d="M314.79,170.07l-13.12.28-6.66.11c-2.23,0-4.47,0-6.7,0h-.44v-.45l-.06-11.19v-.5h.5l13.24.06c4.42,0,8.83.11,13.24.16h.28v.27c0,1.9-.09,3.78-.14,5.65Zm0,0-.14-5.66c0-1.86-.11-3.7-.13-5.53l.27.27c-4.41,0-8.82.16-13.24.16l-13.24.07.5-.5-.05,11.19-.45-.45c2.18,0,4.36,0,6.55.06l6.58.11Z" style="fill:#ebebeb"></path><path d="M300,184.18l-13.12.28-6.67.11c-2.22,0-4.46,0-6.69.05h-.44v-.45L273,173v-.5h.5l13.24.06c4.41,0,8.83.11,13.24.16h.28V173c0,1.9-.08,3.78-.13,5.65Zm0,0-.14-5.66c-.05-1.86-.11-3.7-.13-5.53l.27.27c-4.41.05-8.83.16-13.24.16l-13.24.07.5-.5L274,184.18l-.45-.45c2.18,0,4.36,0,6.55.06l6.57.11Z" style="fill:#ebebeb"></path><path d="M329.56,184.18l-13.12.28-6.66.11c-2.23,0-4.46,0-6.7.05h-.44v-.45L302.58,173v-.5h.5l13.24.06c4.42,0,8.83.11,13.24.16h.28V173c0,1.9-.09,3.78-.13,5.65Zm0,0-.14-5.66c0-1.86-.11-3.7-.13-5.53l.27.27c-4.41.05-8.82.16-13.24.16l-13.24.07.5-.5-.05,11.19-.45-.45c2.19,0,4.36,0,6.55.06l6.58.11Z" style="fill:#ebebeb"></path><path d="M98.88,244.11l-13.12.28-6.67.11c-2.22,0-4.46,0-6.69.05H72v-.45l0-11.19v-.5h.5l13.24.06c4.41,0,8.83.11,13.24.16h.28v.27c0,1.9-.08,3.78-.13,5.65Zm0,0-.14-5.66c0-1.86-.11-3.7-.13-5.53l.27.27c-4.41.05-8.83.16-13.24.16l-13.24.07.5-.5-.05,11.19-.45-.45c2.18,0,4.36,0,6.55.06l6.57.11Z" style="fill:#ebebeb"></path><path d="M537.86,170.06l-13.12.28-6.66.11c-2.23.05-4.47,0-6.7.05h-.44v-.45l-.06-11.19v-.5h.5l13.24.06c4.42,0,8.83.12,13.24.17h.28v.27c0,1.9-.08,3.79-.13,5.65Zm0,0-.14-5.65c-.05-1.87-.11-3.71-.13-5.54l.27.27c-4.41.05-8.82.16-13.24.17l-13.24.06.5-.5-.05,11.19-.45-.45c2.18,0,4.36,0,6.55.06l6.58.11Z" style="fill:#ebebeb"></path><path d="M690.84,61.38l-13.12.28-6.67.11c-2.22,0-4.46,0-6.69.06h-.44v-.45l0-11.19v-.5h.5l13.24.06c4.41,0,8.83.12,13.24.17h.28v.27c0,1.9-.08,3.79-.13,5.65Zm0,0-.14-5.65c-.05-1.87-.11-3.71-.13-5.54l.27.27c-4.41,0-8.83.16-13.24.17l-13.24.06.5-.5-.05,11.19-.45-.45c2.18,0,4.36,0,6.55.06l6.57.11Z" style="fill:#ebebeb"></path><path d="M705.61,75.49l-13.12.28-6.66.11c-2.23.05-4.47,0-6.7.05h-.44v-.45l-.06-11.19v-.5h.5l13.24.06c4.42,0,8.83.12,13.24.17h.28v.27c0,1.9-.09,3.79-.14,5.65Zm0,0-.14-5.65c0-1.87-.11-3.71-.13-5.54l.27.27c-4.41.05-8.82.16-13.24.17l-13.24.06.5-.5,0,11.19-.45-.45c2.18,0,4.36,0,6.55.06l6.58.11Z" style="fill:#ebebeb"></path><path d="M69.34,61.39l-13.13.28-6.66.11c-2.22,0-4.46,0-6.69.06h-.45v-.45l0-11.19v-.5h.51l13.24.07c4.41,0,8.82.11,13.24.16h.27v.27c0,1.9-.09,3.79-.13,5.66Zm0,0-.15-5.65c0-1.87-.11-3.71-.13-5.54l.28.27c-4.42.06-8.83.16-13.24.17l-13.24.06.5-.5L43.3,61.39,42.86,61c2.18,0,4.35,0,6.54,0l6.58.11Z" style="fill:#ebebeb"></path></g><g id="freepik--Plant--inject-108"><path d="M655.12,299a60.49,60.49,0,0,1,1.93,10.89c-.1.19-.08.86,0,.68,0,.6.93.49.93-.1,0-.39,0-.77,0-1.15,2.13-2.64,5.23-4.32,7.72-6.61a14.42,14.42,0,0,0,4.23-6.74c2.08-7.14.13-14.71,2.63-21.83,2.15-6.14,6-11.49,9.26-17.05,3.44-5.89,6-12.07,6.24-19,.2-5.28-.43-12.31-4.45-16.26-4.26-4.2-9.54-1.06-12.81,2.69-9.46,10.85-13.84,24.58-15.61,38.61-1,7.76-2,15.58-1.75,23.41A63.35,63.35,0,0,0,655.12,299Z" style="fill:#FFC727"></path><path d="M657,312.71a133.55,133.55,0,0,1,.26-22s0,0,0-.08c-.12-5.95-.59-11.87-.36-17.83a106.25,106.25,0,0,1,2.62-19.11c0-.08.13-.06.12,0a123.7,123.7,0,0,0-2.07,18.7c-.12,3.36-.1,6.72.08,10.08.06,1.09.16,2.19.23,3.29h0a117.84,117.84,0,0,1,17.69-46.82c.13-.19.47,0,.35.21a122.18,122.18,0,0,0-14.4,34.72c4.55-8.43,11.42-15.36,16.52-23.46,0,0,.1,0,.08.05-4.58,9-12.15,16.12-17,25-.84,3.62-1.53,7.27-2,10.95A123.07,123.07,0,0,0,658,301.64c2.77-5.18,5.64-10.14,7.91-15.61.06-.15.27,0,.22.09-1.93,5.7-4.52,11.83-8.15,16.68,0,3.6.09,7.2.3,10.8.57,9.61,2.21,19.08,3,28.66a.22.22,0,0,1-.44,0A218.07,218.07,0,0,1,657,312.71Z" style="fill:#263238"></path><path d="M667.21,238.64a.05.05,0,1,1,.1,0c-1.75,4.85-2.74,9.77-4,14.74a.18.18,0,0,1-.36-.06C663.45,248.32,665.26,243.29,667.21,238.64Z" style="fill:#263238"></path><path d="M622.66,259a74.58,74.58,0,0,0,4,8.29c3.16,5.73,6.46,11,7,17.67a41.8,41.8,0,0,0,1.27,8.85,27,27,0,0,0,3.53,6.93c3.43,5,7.71,9.29,10.88,14.46a61,61,0,0,1,7.23,17.43c.07.33.6.24.52-.09,0,0,0-.05,0-.08a.12.12,0,0,0,0-.07c.5-14.32-.64-28.76-5-42.48a147.18,147.18,0,0,0-6.94-17.67,41.72,41.72,0,0,0-9.37-13.47c-2.67-2.4-8.45-7-12.24-4.55C621.81,255.35,621.94,257.18,622.66,259Z" style="fill:#FFC727"></path><path d="M637.05,291.44a117.23,117.23,0,0,0,8.33,12c1.38,1.81,2.79,3.61,4.18,5.42.65.86,1.38,1.71,2,2.63-.38-1.51-.74-3-1.13-4.52-1.85-7.24-3.62-14.54-6.38-21.49a144.19,144.19,0,0,0-9.94-19.5c-.1-.17.17-.29.27-.13,3,5,6.1,9.95,8.64,15.2a80,80,0,0,1,3.67,9,139.79,139.79,0,0,0-4.88-19.27c0-.05.06-.1.08,0a66,66,0,0,1,5.07,20s0,0,0,0q.93,2.79,1.72,5.63c2.26,8,4.24,16.11,6.08,24.24a86.86,86.86,0,0,0-1.38-15.93c0-.12.15-.15.18,0a50.52,50.52,0,0,1,1.39,16.79q1,4.63,2,9.28c1.4,6.6,3.13,13.32,4,20a.14.14,0,0,1-.27,0c-1-3.62-1.57-7.36-2.38-11s-1.63-7.34-2.49-11q-1.86-8-3.87-15.95c-.89-1.94-2.6-3.67-3.89-5.3-1.41-1.8-2.82-3.59-4.19-5.41a79.79,79.79,0,0,1-6.89-10.66A.07.07,0,1,1,637.05,291.44Z" style="fill:#263238"></path><path d="M636.44,285.31a74.71,74.71,0,0,1,8.15,12.94c0,.06-.06.12-.1.07-2.74-4.3-5.44-8.63-8.17-12.93C636.27,285.32,636.39,285.24,636.44,285.31Z" style="fill:#263238"></path><path d="M697.41,272.55c-1.85,3.19-4,7-3.17,10.87.5,2.43,2.28,4.4,2.6,6.88.72,5.47-4.73,9.09-8.68,11.67-9.83,6.46-23.32,12.21-25.11,25.39-.07.46-.87.35-.81-.11,0,0,0-.06,0-.09s0,0,0-.08a50.3,50.3,0,0,1,.18-20.12c1.47-6.79,4.43-12.9,7.93-18.86,5.92-10.1,12.19-20.44,21.14-28.18,2.48-2.13,7.55-6,9.52-1.15S699.69,268.65,697.41,272.55Z" style="fill:#FFC727"></path><path d="M688.41,294c-6.52,7.06-16.88,11-22.5,18.93a79.09,79.09,0,0,1,17.3-32.48c.21-.25-.13-.59-.36-.36a64,64,0,0,0-14.14,20.46,92.28,92.28,0,0,1,6.09-15.56c.09-.19-.18-.36-.29-.17A59.45,59.45,0,0,0,668,302.26c-7.39,17.91-8.08,38.91-6.53,57.78a.22.22,0,0,0,.43,0c-.43-14.87-.19-30,3.38-44.53.07-.3.15-.6.23-.9,6.11-8.51,16.43-12.46,23.07-20.54C688.59,294,688.48,293.88,688.41,294Z" style="fill:#263238"></path><path d="M689.92,287.89c-3.42,3.14-6.79,6.35-10.22,9.49,0,0,0,.1,0,.07a50,50,0,0,0,10.38-9.35C690.24,288,690.06,287.76,689.92,287.89Z" style="fill:#263238"></path><path d="M690.47,274.29a107,107,0,0,1-10.25,14.08.06.06,0,0,0,.09.09,49.53,49.53,0,0,0,10.34-14.07A.1.1,0,0,0,690.47,274.29Z" style="fill:#263238"></path><polygon points="675.05 373.35 645.07 373.35 649.11 333.01 670.44 333.01 675.05 373.35" style="fill:#455a64"></polygon><polygon points="671.19 339.56 648.45 339.56 649.11 333.01 670.44 333.01 671.19 339.56" style="fill:#263238"></polygon><rect x="646.01" y="328.54" width="28.1" height="6.44" style="fill:#455a64"></rect></g><g id="freepik--Floor--inject-108"><polygon points="50.72 373.33 131.79 373.09 212.86 373 375 372.83 537.14 373 618.21 373.09 699.28 373.33 618.21 373.58 537.14 373.67 375 373.83 212.86 373.66 131.79 373.57 50.72 373.33" style="fill:#263238"></polygon></g><g id="freepik--Shadow--inject-108"><ellipse cx="375" cy="438.19" rx="323.95" ry="23.81" style="fill:#ebebeb"></ellipse></g><g id="freepik--device-2--inject-108"><rect x="219.7" y="108.24" width="421.66" height="282.06" style="fill:#dbdbdb"></rect><rect x="222.76" y="111.68" width="415.53" height="275.18" style="fill:#263238"></rect><rect x="164.78" y="411.45" width="531.5" height="19.36" style="fill:#c7c7c7"></rect><polygon points="164.78 411.45 219.7 390.3 641.36 390.3 696.28 411.45 164.78 411.45" style="fill:#dbdbdb"></polygon><polygon points="224.6 403.95 260.04 390.3 601.02 390.3 636.46 403.95 224.6 403.95" style="fill:#263238"></polygon><rect x="246.25" y="132.59" width="368.57" height="233.37" style="fill:#fff"></rect><rect x="246.25" y="132.59" width="368.57" height="8.98" style="fill:#455a64"></rect><path d="M254.7,137.08a1.7,1.7,0,1,1-1.7-1.7A1.7,1.7,0,0,1,254.7,137.08Z" style="fill:#c7c7c7"></path><path d="M261.64,137.08a1.7,1.7,0,1,1-1.7-1.7A1.7,1.7,0,0,1,261.64,137.08Z" style="fill:#fff"></path><path d="M268.58,137.08a1.7,1.7,0,1,1-1.7-1.7A1.7,1.7,0,0,1,268.58,137.08Z" style="fill:#FFC727"></path><rect x="608.27" y="141.57" width="6.54" height="224.39" style="fill:#dbdbdb"></rect><path d="M611.54,219.36h0a1.69,1.69,0,0,1-1.69-1.69v-73.1a1.69,1.69,0,0,1,1.69-1.69h0a1.69,1.69,0,0,1,1.69,1.69v73.1A1.69,1.69,0,0,1,611.54,219.36Z" style="fill:#a6a6a6"></path><path d="M401.86,228.8l-8.53-6.57a46.39,46.39,0,0,1,81.94,17.87l-10.49,2.43a35.62,35.62,0,0,0-62.92-13.73Z" style="fill:#FFC727"></path><polygon points="454.05 236.95 469.14 262.95 484.12 236.88 454.05 236.95" style="fill:#FFC727"></polygon><g style="opacity:0.2"><path d="M401.86,228.8l-8.53-6.57a46.39,46.39,0,0,1,81.94,17.87l-10.49,2.43a35.62,35.62,0,0,0-62.92-13.73Z"></path><polygon points="454.05 236.95 469.14 262.95 484.12 236.88 454.05 236.95"></polygon></g><path d="M416.94,292.21a46.6,46.6,0,0,1-31.15-33.76L396.28,256a35.62,35.62,0,0,0,64.23,11.92l8.93,6A46.61,46.61,0,0,1,416.94,292.21Z" style="fill:#FFC727"></path><polygon points="407.01 261.6 391.92 235.6 376.94 261.67 407.01 261.6" style="fill:#FFC727"></polygon></g><g id="freepik--Cloud--inject-108"><path d="M323.35,77.93A13.31,13.31,0,0,0,335.67,91.2v0H411A15.64,15.64,0,0,0,412.47,60a26.34,26.34,0,0,0-51.05-8.24,15.64,15.64,0,0,0-22.6,13,12.85,12.85,0,0,0-2.16-.18A13.31,13.31,0,0,0,323.35,77.93Z" style="fill:#FFC727"></path><rect x="368.2" y="68.49" width="13.6" height="11.67" style="fill:#fff"></rect><polygon points="363.53 68.49 386.47 68.49 375 57.05 363.53 68.49" style="fill:#fff"></polygon><rect x="441.44" y="79.38" width="2" height="1" style="fill:#263238"></rect><path d="M457,80.38h-3.89v-1H457Zm-6.8,0h-3.88v-1h3.88Z" style="fill:#263238"></path><polygon points="462.45 81.88 461.45 81.88 461.45 80.38 459.95 80.38 459.95 79.38 462.45 79.38 462.45 81.88" style="fill:#263238"></polygon><rect x="461.45" y="85.68" width="1" height="5.08" style="fill:#263238"></rect><rect x="461.45" y="94.57" width="1" height="2" style="fill:#263238"></rect><path d="M441.54,81.76a1.88,1.88,0,1,1,1.88-1.88A1.88,1.88,0,0,1,441.54,81.76Z" style="fill:#263238"></path><path d="M460.07,96.47A1.88,1.88,0,1,0,462,94.59,1.88,1.88,0,0,0,460.07,96.47Z" style="fill:#263238"></path><rect x="306.56" y="79.38" width="2" height="1" style="fill:#263238"></rect><path d="M303.6,80.38h-4v-1h4Zm-6.9,0h-3.95v-1h3.95Zm-6.91,0h-3.94v-1h3.94Zm-6.9,0H279v-1h3.94Zm-6.9,0H272v-1H276Zm-6.91,0h-3.94v-1h3.94Zm-6.9,0h-3.94v-1h3.94Zm-6.9,0h-3.95v-1h3.95Zm-6.9,0h-3.95v-1h3.95Zm-6.91,0h-3.94v-1h3.94Zm-6.9,0h-3.94v-1h3.94Z" style="fill:#263238"></path><polygon points="226.17 81.88 225.17 81.88 225.17 79.38 227.67 79.38 227.67 80.38 226.17 80.38 226.17 81.88" style="fill:#263238"></polygon><rect x="225.17" y="84.11" width="1" height="2.98" style="fill:#263238"></rect><rect x="225.17" y="89.33" width="1" height="2" style="fill:#263238"></rect><circle cx="308.46" cy="79.88" r="1.88" style="fill:#263238"></circle><path d="M223.79,91.23a1.88,1.88,0,1,0,1.88-1.88A1.88,1.88,0,0,0,223.79,91.23Z" style="fill:#263238"></path></g><g id="freepik--device-1--inject-108"><path d="M195,186.06H79.78a11.76,11.76,0,0,0-11.65,11.87v237.2A11.77,11.77,0,0,0,79.78,447H195a11.77,11.77,0,0,0,11.66-11.87V197.93A11.76,11.76,0,0,0,195,186.06Zm4.38,241.74c0,6.24-4.68,11.29-10.44,11.29H85.86c-5.78,0-10.45-5-10.45-11.29V206.92c0-12.71,4.67-13.33,10.45-13.33h20.65c1.2,0,2.18,1.36,2.18,3v.73c0,4,2.17,4,4.83,4h47.75c2.69,0,4.84,0,4.84-4v-.73c0-1.69,1-3,2.18-3H189c5.76,0,10.44,1.69,10.44,13.33Z" style="fill:#263238"></path><path d="M143.91,196.4h-13a.81.81,0,0,1-.81-.81h0a.8.8,0,0,1,.81-.8h13a.8.8,0,0,1,.81.8h0A.81.81,0,0,1,143.91,196.4Z" style="fill:#263238"></path><path d="M199.39,206.92V427.8c0,6.24-4.68,11.29-10.44,11.29H85.87c-5.78,0-10.46-5-10.46-11.29V206.92c0-12.71,4.68-13.33,10.46-13.33h20.64c1.2,0,2.18,1.36,2.18,3v.73c0,4,2.17,4,4.83,4h47.76c2.68,0,4.83,0,4.83-4v-.73c0-1.69,1-3,2.19-3H189C194.71,193.59,199.39,195.28,199.39,206.92Z" style="fill:#fff"></path><path d="M199.39,206.92v16.49h-124V206.92c0-12.71,4.67-13.33,10.45-13.33h20.65c1.2,0,2.19,1.36,2.19,3v.73c0,4,2.16,4,4.82,4h47.75c2.69,0,4.84,0,4.84-4v-.73c0-1.69,1-3,2.19-3h20.64C194.71,193.59,199.39,195.28,199.39,206.92Z" style="fill:#FFC727"></path><g id="freepik--u5Zjqx--inject-108"><path d="M103,198.55l-.2.19-.11.12a2.72,2.72,0,0,0-3.85,0l-.11-.11-.19-.2h0l.26-.22a2.72,2.72,0,0,1,.58-.37,2.42,2.42,0,0,1,.77-.26l.39-.06h.34l.26,0a2.54,2.54,0,0,1,.71.17,2.62,2.62,0,0,1,.48.22,2.91,2.91,0,0,1,.46.32l.21.19Z" style="fill:#fff"></path><path d="M99.42,199.49l-.31-.32a2.27,2.27,0,0,1,3.21,0l-.32.31a1.82,1.82,0,0,0-2.58,0Z" style="fill:#fff"></path><path d="M101.69,199.8l-.32.31a.93.93,0,0,0-1.32,0l-.31-.32A1.38,1.38,0,0,1,101.69,199.8Z" style="fill:#fff"></path><path d="M101,200.4a.29.29,0,1,1-.29-.28A.28.28,0,0,1,101,200.4Z" style="fill:#fff"></path></g><path d="M83.49,199.15a.83.83,0,1,1,.83.82A.83.83,0,0,1,83.49,199.15Z" style="fill:#fff"></path><path d="M86.08,199.15a.83.83,0,1,1,.82.82A.82.82,0,0,1,86.08,199.15Z" style="fill:#fff"></path><path d="M88.67,199.15a.82.82,0,1,1,.82.82A.82.82,0,0,1,88.67,199.15Z" style="fill:#fff"></path><path d="M91.26,199.15a.82.82,0,1,1,.82.82A.82.82,0,0,1,91.26,199.15Z" style="fill:#fff"></path><path d="M93.85,199.15a.82.82,0,1,1,.82.82A.82.82,0,0,1,93.85,199.15Z" style="fill:#fff"></path><path d="M190.09,201h-6.7v-3.11h6.7Zm-6.35-.35h6v-2.41h-6Z" style="fill:#fff"></path><rect x="183.95" y="198.37" width="4.31" height="2.05" style="fill:#fff"></rect><rect x="190.09" y="198.57" width="0.59" height="1.66" style="fill:#fff"></rect><path d="M113.44,299.23l-7.13-5.49a38.77,38.77,0,0,1,68.48,14.94l-8.76,2a29.77,29.77,0,0,0-52.59-11.48Z" style="fill:#FFC727"></path><polygon points="157.06 306.04 169.67 327.77 182.19 305.98 157.06 306.04" style="fill:#FFC727"></polygon><g style="opacity:0.2"><path d="M113.44,299.23l-7.13-5.49a38.77,38.77,0,0,1,68.48,14.94l-8.76,2a29.77,29.77,0,0,0-52.59-11.48Z"></path><polygon points="157.06 306.04 169.67 327.77 182.19 305.98 157.06 306.04"></polygon></g><path d="M126,352.23A38.94,38.94,0,0,1,100,324l8.76-2a29.78,29.78,0,0,0,53.69,10l7.46,5A39,39,0,0,1,126,352.23Z" style="fill:#FFC727"></path><polygon points="117.74 326.65 105.13 304.92 92.61 326.7 117.74 326.65" style="fill:#FFC727"></polygon></g><g id="freepik--Character--inject-108"><path d="M209,343.66c-2-.26-51-24.22-52.32-26.31-.5-.79,2.57-8.14,6.54-16.91.85-1.89,4.28-32.32,4.28-32.32l33.24,12.54-5.86,35.13s14.67,17.57,15.85,20S211,343.93,209,343.66Z" style="fill:#ad6359"></path><path d="M156.66,317.35c1.29,2.1,50.33,26,52.32,26.31s2.88-5.4,1.72-7.84-15.84-20-15.84-20l1.21-7.3-31.87-13.7a40.74,40.74,0,0,1-1,5.65C159.23,309.21,156.16,316.56,156.66,317.35Z" style="fill:#ebebeb"></path><path d="M209,343.66c-2-.26-51-24.22-52.32-26.31-.5-.79,2.57-8.14,6.54-16.91l31.66,15.35s14.67,17.57,15.85,20S211,343.93,209,343.66Z" style="fill:#FFC727"></path><path d="M209.24,341.36c-8.12-4.22-41.28-20.46-49.63-24-.07,0-.09,0,0,.06,8,4.35,41.25,20.33,49.59,24.09C209.35,341.57,209.41,341.45,209.24,341.36Z" style="fill:#263238"></path><path d="M208.41,332.51a7.37,7.37,0,0,0-5.9-.4,7.16,7.16,0,0,0-4,3.5c0,.05.07.09.1,0a8.51,8.51,0,0,1,9.73-3A.06.06,0,1,0,208.41,332.51Z" style="fill:#263238"></path><path d="M197.65,318.17c-3.27-1.65-7.65-2.36-11-.66-.13.06,0,.25.09.24a50.66,50.66,0,0,1,10.78.85A.23.23,0,0,0,197.65,318.17Z" style="fill:#263238"></path><path d="M199.71,320.4c-3.27-1.65-7.65-2.35-11-.66-.13.06,0,.25.08.24a50.76,50.76,0,0,1,10.79.85A.23.23,0,0,0,199.71,320.4Z" style="fill:#263238"></path><path d="M201.76,322.63c-3.27-1.65-7.65-2.35-11-.66-.13.06,0,.25.09.25a50.65,50.65,0,0,1,10.78.84A.23.23,0,0,0,201.76,322.63Z" style="fill:#263238"></path><path d="M203.82,324.86c-3.27-1.65-7.65-2.35-11-.66-.13.07,0,.25.09.25a50,50,0,0,1,10.78.85A.23.23,0,0,0,203.82,324.86Z" style="fill:#263238"></path><path d="M165.52,310.56c-3.7-1.79-6.49,3.95-2.79,5.75S169.22,312.36,165.52,310.56Z" style="fill:#263238"></path><path d="M205.49,311.13c-1-2.2-3.74-1.87-5.47-.94a19.24,19.24,0,0,0-7.1,6.95c0,.07,0,.12.06.15a.44.44,0,0,0,.46.55c3.13-.48,6.54-.6,9.44-2C204.57,315,206.43,313.2,205.49,311.13Zm-7.45,5c-1.53.27-3.07.46-4.6.79a56.87,56.87,0,0,1,4.24-4,19.28,19.28,0,0,1,2.28-1.63c1.25-.74,5.82-1.91,4.4,1.83C203.58,315.23,199.87,315.82,198,316.15Z" style="fill:#263238"></path><path d="M184.15,314.37c2.65,1.84,6,2.47,9,3.4.31.1.54-.2.54-.48a.09.09,0,0,0,.08-.13,19.12,19.12,0,0,0-6-7.93c-1.57-1.18-4.24-1.92-5.55.11S182.6,313.29,184.15,314.37Zm-1.07-2.84c-.85-3.91,3.5-2.07,4.62-1.16a20.67,20.67,0,0,1,2,2,56.16,56.16,0,0,1,3.6,4.55c-1.46-.55-2.95-1-4.43-1.47C187.12,314.82,183.54,313.68,183.08,311.53Z" style="fill:#263238"></path><path d="M160.56,296.2l39.8,17.26s10.89-70,8.32-98.33c-1.74-19.28-26.5-45.23-38.43-62.54-.69-1-2.73-12.32-2.73-12.32H134.73l.51,24.71c.74,15,34.54,45.53,34.85,54.52C170.43,229.55,160.56,296.2,160.56,296.2Z" style="fill:#455a64"></path><path d="M199.67,303.43c-9.08-4.72-33.72-15.11-35-15.43-.08,0-.15.11-.08.15,1,.68,24.26,11.77,35.06,15.41C199.69,303.59,199.75,303.47,199.67,303.43Z" style="fill:#263238"></path><path d="M143,170.78q.47.9,1,1.77a70.23,70.23,0,0,0,4.2,5.81l4.75,6.18c3.18,4.12,6.31,8.27,9.49,12.39s6.21,7.93,9.17,12a27.87,27.87,0,0,1,3.43,5.84,20.53,20.53,0,0,1,1.42,6.7c.24,4.88-.68,9.85-1.28,14.68q-1,7.65-2.06,15.29c-.73,5.09-1.52,10.18-2.33,15.26s-1.49,10.05-2.58,15c-.28,1.27-.51,2.56-.75,3.84,0,.07-.13.05-.12,0q2.33-15.22,4.44-30.48c.7-5.09,1.36-10.19,2-15.29s1.43-9.93,1.7-14.92a25.6,25.6,0,0,0-.46-7.2,19.08,19.08,0,0,0-2.91-6.31c-1.35-2-2.88-3.93-4.36-5.84s-3.16-4.13-4.75-6.19q-4.75-6.18-9.5-12.37c-3-4-6.17-7.85-9-11.92a27.14,27.14,0,0,1-3.32-6,26.22,26.22,0,0,1-1.44-6.6,121.45,121.45,0,0,1-.14-14.9q0-1.89.09-3.78a.08.08,0,0,1,.16,0c.23,5,.28,10.06.48,15.09a37.08,37.08,0,0,0,.9,7.28,21.8,21.8,0,0,0,1.78,4.74" style="fill:#263238"></path><path d="M167.92,231.42c.27-2-10-55.61-11.64-57.41-.64-.68-8.53.35-18,1.87-2.05.33-32.31-4.36-32.31-4.36l3.37,35.37,35.44,3.58s13.1,18.77,15.15,20.55S167.65,233.41,167.92,231.42Z" style="fill:#ad6359"></path><path d="M156.28,174c1.68,1.79,11.91,55.4,11.64,57.39s-6,1.37-8-.39-15.16-20.55-15.16-20.55l-7.37-.75-4.84-34.36a42.47,42.47,0,0,0,5.71.52C147.75,174.36,155.64,173.33,156.28,174Z" style="fill:#ebebeb"></path><path d="M167.92,231.42c.27-2-10-55.61-11.64-57.41-.64-.68-8.53.35-18,1.87l6.5,34.59s13.1,18.77,15.15,20.55S167.65,233.41,167.92,231.42Z" style="fill:#FFC727"></path><path d="M165.63,231.06c-1.94-8.95-8.9-45.21-10.13-54.2,0-.07,0-.08.05,0,2.12,8.83,8.78,45.14,10.23,54.18C165.81,231.22,165.67,231.25,165.63,231.06Z" style="fill:#263238"></path><path d="M157.31,227.94a7.33,7.33,0,0,1,1.17-5.8,7.09,7.09,0,0,1,4.41-2.92c.05,0,.07.09,0,.11a8.48,8.48,0,0,0-5.49,8.59C157.43,228,157.32,228,157.31,227.94Z" style="fill:#263238"></path><path d="M146.3,213.78c-.74-3.58-.26-8,2.25-10.79.1-.11.25,0,.22.15a50.43,50.43,0,0,0-2,10.62A.23.23,0,0,1,146.3,213.78Z" style="fill:#263238"></path><path d="M147.91,216.35c-.74-3.58-.26-8,2.25-10.79.1-.11.25,0,.22.15a49.79,49.79,0,0,0-2,10.62A.23.23,0,0,1,147.91,216.35Z" style="fill:#263238"></path><path d="M149.52,218.92c-.73-3.58-.26-8,2.26-10.79.09-.11.25,0,.21.15a51.06,51.06,0,0,0-2,10.62A.23.23,0,0,1,149.52,218.92Z" style="fill:#263238"></path><path d="M151.14,221.49c-.74-3.58-.27-8,2.25-10.79.1-.11.25,0,.21.15a51.06,51.06,0,0,0-2,10.62A.23.23,0,0,1,151.14,221.49Z" style="fill:#263238"></path><path d="M147.4,180.78c-.76-4,5.51-5.22,6.27-1.18S148.16,184.83,147.4,180.78Z" style="fill:#263238"></path><path d="M142.66,218.21c2.13-2.42,3.15-5.68,4.43-8.58a.45.45,0,0,0-.42-.59.09.09,0,0,0-.12-.09,19.2,19.2,0,0,0-8.57,5c-1.36,1.43-2.4,4-.54,5.53S141.41,219.62,142.66,218.21Zm-2.95.74c-4,.38-1.65-3.72-.61-4.73a20.64,20.64,0,0,1,2.18-1.78,56.91,56.91,0,0,1,4.94-3c-.72,1.39-1.31,2.82-2,4.23C143.45,215.31,141.91,218.73,139.71,219Z" style="fill:#263238"></path><path d="M141.82,196.61c-2.3.73-2.29,3.51-1.57,5.33a19.22,19.22,0,0,0,6.09,7.86c.06,0,.12,0,.15,0a.44.44,0,0,0,.6-.39c-.11-3.17.17-6.57-.91-9.61C145.55,198,144,195.92,141.82,196.61Zm4.12,8c.09,1.55.11,3.11.26,4.66a56.22,56.22,0,0,1-3.45-4.67,21,21,0,0,1-1.36-2.46c-.59-1.32-1.22-6,2.33-4.15C145.67,199,145.83,202.74,145.94,204.6Z" style="fill:#263238"></path><path d="M148.13,140.27h-23.9s-1.37,9.14-3.63,10.2c-6.71,3.17-35.56,7.08-52.51,16.05-14.59,7.72-16.37,25.95,3.45,33.55,27.17,10.43,63.89,12.23,63.89,12.23l-2.16-39.85s-26.82-3.07-47.16-2.55c0,0,20.72,5.68,43.68,1.74,5.25-.91,11.08-3.52,16.28-5.44Z" style="fill:#455a64"></path><path d="M128.17,208.22c-.2-2.24-.19-4.52-.28-6.77l-.27-6.78c-.18-4.5-1.24-19.87-1.52-21,0-.08-.13-.06-.14,0-.13,1.08.3,11.13.43,13.38.26,4.51.65,9,1,13.51.1,1.29.23,2.57.34,3.86s.27,2.57.32,3.85C128.05,208.31,128.18,208.3,128.17,208.22Z" style="fill:#263238"></path><path d="M76.28,169.6a111,111,0,0,1,12.88-.72c-1.65-.37-3.32-.66-5-.92-.1,0-.1-.16,0-.15A31.78,31.78,0,0,1,90,168.87c2.85,0,5.69.1,8.53.25,7.43.38,14.85,1.08,22.25,1.81q6.31.63,12.62,1.29a.36.36,0,0,1,.35.36c0,1.1-.09,2.21-.13,3.31a.22.22,0,0,1-.43,0c0-1-.11-2-.14-3-7.32-.6-14.63-1.24-22-1.87s-14.83-1.1-22.26-1.28c-4.17-.1-8.32-.11-12.49,0C76.21,169.76,76.2,169.61,76.28,169.6Z" style="fill:#263238"></path><path d="M74.72,172.3c6.49,0,13,.17,19.43.63s12.79,1.06,19.14,1.94c1.76.24,3.52.49,5.27.77s3.55.66,5.33,1c.07,0,0,.13,0,.12-3.2-.44-6.42-.76-9.63-1.13s-6.3-.74-9.46-1Q95.2,173.6,85.59,173c-3.62-.21-7.24-.44-10.87-.58A.07.07,0,0,1,74.72,172.3Z" style="fill:#263238"></path><path d="M151.15,163.76a63.18,63.18,0,0,0-10.24,4.17c-.13.07-.06.27.08.22,3.44-1.29,6.95-2.51,10.32-4A.22.22,0,0,0,151.15,163.76Z" style="fill:#263238"></path><path d="M153.42,140.47c0-.12-.21-.15-.22,0-.18,4-.61,7.57-1.14,11.33-.25,1.74-2.14,11.35-5.11,10.49-.5-.15-.73-.66-.77-1.43a12.08,12.08,0,0,1,.55-3c.44-2,.81-4,1.09-6.07a55.58,55.58,0,0,0,.46-11.46.1.1,0,0,0-.19,0,106.85,106.85,0,0,1-1.73,15.77c-.5,2.5-2,6.22.63,6.75s4.68-5.73,5.09-7.45A58.69,58.69,0,0,0,153.42,140.47Z" style="fill:#263238"></path><path d="M147,162.53a17.53,17.53,0,0,0-.78,2,4.74,4.74,0,0,0-.36,1.64c0,.11.14.12.2.06a5.76,5.76,0,0,0,.78-1.57c.26-.61.54-1.22.78-1.83A.34.34,0,0,0,147,162.53Z" style="fill:#263238"></path><path d="M167.43,107.79c0,.1.14.09.14,0,.14-4.61,4.68-7.68,4.53-12.37A11,11,0,0,0,170,89.66a29.41,29.41,0,0,0-2.62-3.08l-.37-.51a22.86,22.86,0,0,1-2.13-3.38,13,13,0,0,1-1.1-4.38c-.3-2.89-.4-5.83-2.42-8.12a12.64,12.64,0,0,0-6.56-3.62c-5.53-1.34-12.1-.37-15.76,4.36a10.14,10.14,0,0,0-1.52,2.75,12.18,12.18,0,0,0-4.19,6.11c-.85,3.31,1.36,6,1.16,7.68-.18,1.46-1.07,2.71-1.66,4a25.17,25.17,0,0,0-1.64,3.44,8.89,8.89,0,0,0-.12,5.16,9.63,9.63,0,0,0,2.07,4.21,7.92,7.92,0,0,0,3.81,2.24c.35.11.69.2,1,.29l0,0c1.22.67,2.53,1.17,3.7,1.94a6.3,6.3,0,0,1,2.56,3.62c.4,1.36.53,2.79.84,4.17a10.34,10.34,0,0,0,1.52,3.62,11.91,11.91,0,0,0,6.2,4.48,18,18,0,0,0,9,.32,9.71,9.71,0,0,0,6.66-4,8.51,8.51,0,0,0,1-6.93,22.82,22.82,0,0,0-1.95-3.89,6.9,6.9,0,0,1-.87-4.14c.62-4.75,5.2-8.43,4-13.52A11.66,11.66,0,0,0,169,88.87a11.66,11.66,0,0,1,2.67,5.78,10.23,10.23,0,0,1-1.74,6.54C168.79,103.23,167.39,105.34,167.43,107.79Zm-30.22-1.42a7.81,7.81,0,0,1-4.74-3.63,10.56,10.56,0,0,1-1.29-6.6A11.86,11.86,0,0,1,132.3,93l0-.08a11.07,11.07,0,0,0-.38,2.13,12.78,12.78,0,0,0,1.31,6.71,11.69,11.69,0,0,0,4,4.59Z" style="fill:#263238"></path><path d="M149.14,106.83c4.71,13.49,15,34.15,22.23,33.34,6.62-.74,20.3-13.91,26.12-18.35s-9.51-18.31-12.83-15.51c-5.15,4.33-12.74,11.92-14.17,11.6-1.79-.39-4.41-4.45-15.5-16.09C150.45,97.06,147.13,101.1,149.14,106.83Z" style="fill:#ad6359"></path><path d="M190.76,99.82c2.83-1.31,6-3,9.21-3.29s6.36,3.79,6.47,5-.37,9-3.62,9.31-1.85-5.76-2-6.42-.39-1.51-1-1.39S189,109.27,189,109.27Z" style="fill:#ad6359"></path><path d="M191,100.25c.19,0,8.56-4.27,11.81-4.52s6.36,3.78,6.47,5-.38,9-3.62,9.3-1.85-5.75-2-6.42-.4-1.51-1-1.39-10.84,6.23-10.84,6.23Z" style="fill:#ad6359"></path><path d="M204.53,109.74a4,4,0,0,1-.73-1.87,6.91,6.91,0,0,1-.08-2.08A10.41,10.41,0,0,0,204,104a3.61,3.61,0,0,0-.62-1.67c-.29-.43-.75-.23-1.15-.05a16.75,16.75,0,0,0-1.69,1l-1.76,1.12a17,17,0,0,0-1.78,1.22s0,.11,0,.08c.55-.25,1.06-.59,1.58-.89s1.18-.7,1.78-1,1.09-.66,1.66-1a1.83,1.83,0,0,1,.83-.34c.25,0,.43.63.5.82a3,3,0,0,1,.06,1.76,9.27,9.27,0,0,0-.17,1.82,4.74,4.74,0,0,0,.3,1.67,6.27,6.27,0,0,0,.91,1.33C204.48,109.87,204.58,109.79,204.53,109.74Z" style="fill:#263238"></path><path d="M181.53,109.75s8.21-9,9.93-10.86c3.45-3.62,18.65-11.6,20.84-12s3.41,4-6.89,9.72c-5.42,3-6.12,6.35-5.84,8.14s2.31,5,5.33,4.6,4.55-5,7.28-5.72,1.38,4.51-.3,7.64a18.59,18.59,0,0,1-7.52,7.12c-2.52,1.23-10.28,5.48-10.28,5.48Z" style="fill:#ad6359"></path><path d="M208.45,106.83c-1.06,1-2.24,2.26-3.73,2.45a3.63,3.63,0,0,1-3.48-1.89,5.77,5.77,0,0,1-1.2-4.11,7.14,7.14,0,0,1,1.75-3.58,17.5,17.5,0,0,1,3.84-3.12c.06,0,0-.13-.07-.09-1.33.76-5.49,2.94-6,6.84a5.83,5.83,0,0,0,1.25,4.18,4.16,4.16,0,0,0,3.34,2.18c1.8,0,3.2-1.62,4.38-2.83C208.59,106.81,208.5,106.78,208.45,106.83Z" style="fill:#263238"></path><path d="M181.42,108.61l15.45,19.61s-20.21,14-26.44,12.64-17-17.8-22.2-32.64,4.67-9.9,8.74-5.55,13,14.46,13.38,14.27S181.42,108.61,181.42,108.61Z" style="fill:#FFC727"></path><path d="M169.43,140.53l.16.07c.06-.12.12-.23.17-.35C169.64,140.34,169.54,140.44,169.43,140.53Zm-22-40.1a1,1,0,0,1-.41.27.86.86,0,0,1-.27,0,2.72,2.72,0,0,0,0,.42,1,1,0,0,0,.46-.14,1.12,1.12,0,0,0,.44-.45c.09-.18.18-.34.26-.52C147.76,100.18,147.63,100.31,147.48,100.43Zm24.3,21.75c-.06-.18-.1-.37-.18-.55,0,.2,0,.39,0,.58a1.08,1.08,0,0,1-.08.49.87.87,0,0,1-.68.51,1.17,1.17,0,0,0-1,.83,1.12,1.12,0,0,0,0,.63c.06.18.1.37.18.55a5.46,5.46,0,0,0,0-.57,1.07,1.07,0,0,1,.1-.49.91.91,0,0,1,.71-.49,1.14,1.14,0,0,0,1-.86A1.11,1.11,0,0,0,171.78,122.18ZM151.21,112c-.06-.18-.11-.37-.18-.55,0,.19,0,.38-.05.57a1,1,0,0,1-.09.49.85.85,0,0,1-.68.52l-.1,0,.18.44a1.16,1.16,0,0,0,1-.86A1.2,1.2,0,0,0,151.21,112Zm28.18,24.64c-.06-.18-.11-.37-.18-.55,0,.19,0,.38-.05.58a1.07,1.07,0,0,1-.09.49.87.87,0,0,1-.68.51,1.15,1.15,0,0,0-1,.83,1,1,0,0,0,0,.63l.06.18.16-.07s0-.09,0-.14a1.06,1.06,0,0,1,.1-.48.88.88,0,0,1,.71-.49,1.16,1.16,0,0,0,1-.86A1.21,1.21,0,0,0,179.39,136.67Zm10.35-7a5.05,5.05,0,0,0-.18-.55,5.46,5.46,0,0,0,0,.57,1.07,1.07,0,0,1-.09.49.9.9,0,0,1-.68.52,1.11,1.11,0,0,0-1,1.46c.06.18.1.36.18.54,0-.19,0-.38,0-.57a.92.92,0,0,1,.1-.48.88.88,0,0,1,.7-.49,1.17,1.17,0,0,0,1-.87A1.07,1.07,0,0,0,189.74,129.63Zm-33.13-27.11-.09-.31-.1-.1c0,.15,0,.3,0,.44a1.08,1.08,0,0,1-.08.49.87.87,0,0,1-.68.51,1.17,1.17,0,0,0-1,.83,1,1,0,0,0,0,.63,5.05,5.05,0,0,0,.18.55,5.46,5.46,0,0,0,0-.57,1.07,1.07,0,0,1,.1-.49.91.91,0,0,1,.71-.49,1.14,1.14,0,0,0,1-.86A1.21,1.21,0,0,0,156.61,102.52Zm23.19,25a1.16,1.16,0,0,1-.4.29.91.91,0,0,1-.85-.12,1.13,1.13,0,0,0-1.28-.11,1.12,1.12,0,0,0-.44.45c-.08.17-.18.34-.26.52.16-.12.29-.25.44-.38a1.09,1.09,0,0,1,.41-.26.87.87,0,0,1,.85.15,1.12,1.12,0,0,0,1.71-.4,4.89,4.89,0,0,0,.26-.51C180.09,127.25,180,127.39,179.8,127.51Zm-18.48-6.6a1.12,1.12,0,0,1-.4.28.86.86,0,0,1-.85-.12,1.17,1.17,0,0,0-1.28-.11,1.08,1.08,0,0,0-.44.46c-.08.17-.18.33-.26.51.16-.11.29-.25.44-.37a1,1,0,0,1,.41-.27.92.92,0,0,1,.85.15,1.15,1.15,0,0,0,1.29.08,1.17,1.17,0,0,0,.42-.47,5,5,0,0,0,.26-.52Zm27-1.62a1,1,0,0,1-.4.28.86.86,0,0,1-.85-.12,1.17,1.17,0,0,0-1.28-.11,1.05,1.05,0,0,0-.43.46c-.08.17-.19.33-.27.51.16-.11.29-.25.44-.37a1,1,0,0,1,.42-.27.9.9,0,0,1,.84.15,1.15,1.15,0,0,0,1.29.08,1.1,1.1,0,0,0,.42-.47,5.12,5.12,0,0,0,.27-.52ZM165,132.41a1,1,0,0,1-.48-.1.88.88,0,0,1-.49-.71,1.16,1.16,0,0,0-.86-1,1.21,1.21,0,0,0-.63,0c-.18.06-.37.11-.55.18.19,0,.38,0,.58.05a1.07,1.07,0,0,1,.49.09.87.87,0,0,1,.51.68,1.15,1.15,0,0,0,.83,1,1,1,0,0,0,.63,0c.18-.06.37-.11.55-.18C165.41,132.43,165.22,132.43,165,132.41Zm13.74-16a1,1,0,0,1-.48-.1.89.89,0,0,1-.49-.71,1.16,1.16,0,0,0-.86-1,1.21,1.21,0,0,0-.63,0c-.18.06-.37.11-.55.18.19,0,.38,0,.57.05a1.17,1.17,0,0,1,.49.08.86.86,0,0,1,.52.68,1.16,1.16,0,0,0,.83,1,1.12,1.12,0,0,0,.63,0c.18-.06.37-.11.55-.18C179.15,116.4,179,116.4,178.77,116.38ZM165,112.24a1.06,1.06,0,0,1-.48-.1.88.88,0,0,1-.49-.71,1.16,1.16,0,0,0-.86-1,1.21,1.21,0,0,0-.63,0c-.18.06-.37.11-.55.18.19,0,.38,0,.58,0a1.23,1.23,0,0,1,.49.08.88.88,0,0,1,.51.69,1.16,1.16,0,0,0,.83,1,1.12,1.12,0,0,0,.63,0c.18-.06.37-.11.55-.18C165.41,112.26,165.22,112.26,165,112.24Z" style="fill:#fff"></path><path d="M187,134.48c-6.05,3.53-13.24,7.09-16.53,6.38-6.22-1.35-17-17.8-22.2-32.64-2.52-7.18-1.51-9.73.67-10Z" style="opacity:0.1"></path><path d="M189.16,126.88l-1.5-2.09c-1-1.4-7.06-9.65-9.37-12.11-.06-.07-.16,0-.12.1,1.73,2.92,8,11,9,12.32l1.6,2c.54.67,1.16,1.29,1.7,2a.07.07,0,0,0,.11-.08C190.06,128.34,189.65,127.58,189.16,126.88Z" style="fill:#263238"></path><path d="M165.37,131.26l4.2,14.38-47.15-.39s5.34-34.26,13.28-43.57c5.37-6.31,12-6.11,16.33-2,1.1,1,12.68,13.4,14.26,19.74C167.68,125,165.37,131.26,165.37,131.26Z" style="fill:#FFC727"></path><path d="M153.55,133.72a1,1,0,0,1-.42.27.85.85,0,0,1-.84-.15,1.15,1.15,0,0,0-1.29-.07,1.2,1.2,0,0,0-.43.47c-.08.17-.18.33-.26.51a5.37,5.37,0,0,0,.44-.37,1.19,1.19,0,0,1,.41-.29.89.89,0,0,1,.84.12,1.15,1.15,0,0,0,1.29.11,1.18,1.18,0,0,0,.44-.45c.08-.18.18-.34.26-.52C153.83,133.47,153.69,133.6,153.55,133.72Zm-24.06,5a1,1,0,0,1-.42.27.88.88,0,0,1-.84-.15,1.13,1.13,0,0,0-1.29-.07,1.17,1.17,0,0,0-.43.46c-.08.18-.18.34-.26.52a5.46,5.46,0,0,0,.44-.38,1.16,1.16,0,0,1,.41-.28.86.86,0,0,1,.84.12,1.19,1.19,0,0,0,1.29.11,1.14,1.14,0,0,0,.44-.46c.08-.17.18-.33.26-.51A5.37,5.37,0,0,0,129.49,138.68Zm38.67,2.13-.1-.07a1.15,1.15,0,0,0-1.29-.07,1.17,1.17,0,0,0-.42.47,4.89,4.89,0,0,0-.26.51c.16-.11.29-.25.44-.37a1.07,1.07,0,0,1,.41-.29.89.89,0,0,1,.84.12,1.06,1.06,0,0,0,.54.24Zm-29.83-22.87a1,1,0,0,1-.42.27.88.88,0,0,1-.84-.15,1.15,1.15,0,0,0-1.29-.07,1.17,1.17,0,0,0-.43.46c-.08.18-.18.34-.26.52.16-.12.3-.25.44-.37a1.07,1.07,0,0,1,.41-.29.89.89,0,0,1,.85.12,1.17,1.17,0,0,0,1.28.11,1.14,1.14,0,0,0,.44-.46c.08-.17.18-.33.26-.51A5.37,5.37,0,0,0,138.33,117.94Zm9.15-17.51a1,1,0,0,1-.41.27.87.87,0,0,1-.85-.15,1.15,1.15,0,0,0-1.29-.07,1.17,1.17,0,0,0-.42.47,4.89,4.89,0,0,0-.26.51c.16-.11.29-.25.44-.37a1.11,1.11,0,0,1,.41-.29.89.89,0,0,1,.84.12,1.14,1.14,0,0,0,1.28.11,1.12,1.12,0,0,0,.44-.45c.09-.18.18-.34.26-.52C147.76,100.18,147.63,100.31,147.48,100.43Zm3.73,11.6c-.06-.18-.11-.37-.18-.55,0,.19,0,.38-.05.57a1,1,0,0,1-.09.49.85.85,0,0,1-.68.52,1.16,1.16,0,0,0-1,.83,1.12,1.12,0,0,0,0,.63c.06.18.11.37.18.55,0-.2,0-.39.05-.58a1,1,0,0,1,.1-.48.88.88,0,0,1,.71-.49,1.16,1.16,0,0,0,1-.86A1.2,1.2,0,0,0,151.21,112Zm4.41-8.48a1.17,1.17,0,0,0-1,.83,1,1,0,0,0,0,.63,5.05,5.05,0,0,0,.18.55,5.46,5.46,0,0,0,0-.57,1.07,1.07,0,0,1,.1-.49.91.91,0,0,1,.71-.49.92.92,0,0,0,.27-.08Zm-17.29,24.51c-.06-.18-.1-.37-.17-.55,0,.2,0,.39,0,.58a1.07,1.07,0,0,1-.09.49.87.87,0,0,1-.68.51,1.15,1.15,0,0,0-1,.83,1,1,0,0,0,0,.63c.06.18.1.37.18.55,0-.19,0-.38,0-.58a1.06,1.06,0,0,1,.1-.48.9.9,0,0,1,.7-.49,1.16,1.16,0,0,0,1-.86A1.11,1.11,0,0,0,138.33,128.06Zm23-7.15a1.12,1.12,0,0,1-.4.28.86.86,0,0,1-.85-.12,1.17,1.17,0,0,0-1.28-.11,1.08,1.08,0,0,0-.44.46c-.08.17-.18.33-.26.51.16-.11.29-.25.44-.37a1,1,0,0,1,.41-.27.92.92,0,0,1,.85.15,1.15,1.15,0,0,0,1.29.08,1.17,1.17,0,0,0,.42-.47,5,5,0,0,0,.26-.52Zm3.71,11.5a1,1,0,0,1-.48-.1.88.88,0,0,1-.49-.71,1.16,1.16,0,0,0-.86-1,1.21,1.21,0,0,0-.63,0c-.18.06-.37.11-.55.18.19,0,.38,0,.58.05a1.07,1.07,0,0,1,.49.09.87.87,0,0,1,.51.68,1.15,1.15,0,0,0,.83,1,1,1,0,0,0,.63,0c.18-.06.37-.11.55-.18C165.41,132.43,165.22,132.43,165,132.41Zm-16.69-7.89a1,1,0,0,1-.48-.1.86.86,0,0,1-.49-.71,1.17,1.17,0,0,0-.87-1,1.21,1.21,0,0,0-.63,0c-.18.06-.36.11-.54.18.19,0,.38,0,.57.05a1.07,1.07,0,0,1,.49.09.85.85,0,0,1,.51.68,1.17,1.17,0,0,0,.83,1,1.12,1.12,0,0,0,.63,0c.19-.06.37-.11.55-.18C148.72,124.54,148.53,124.54,148.34,124.52Zm-7.47,16.36a1,1,0,0,1-.48-.1.89.89,0,0,1-.5-.71,1.14,1.14,0,0,0-.86-1,1.21,1.21,0,0,0-.63,0l-.55.18c.2,0,.39,0,.58.05a1.07,1.07,0,0,1,.49.09.85.85,0,0,1,.51.68,1.17,1.17,0,0,0,.83,1,1.12,1.12,0,0,0,.63,0c.19-.06.37-.11.55-.18C141.25,140.9,141.06,140.9,140.87,140.88Zm-13.1-14.38a1.06,1.06,0,0,1-.48-.1.88.88,0,0,1-.49-.71,1,1,0,0,0-.27-.57l-.18.71h0a1.16,1.16,0,0,0,.82.9,1,1,0,0,0,.63,0c.18-.06.37-.11.55-.18C128.16,126.52,128,126.52,127.77,126.5Zm27.61,18.59a1,1,0,0,1-.48-.1.9.9,0,0,1-.5-.71,1.13,1.13,0,0,0-.86-1,1.11,1.11,0,0,0-.63,0c-.18.06-.36.1-.54.18.19,0,.38,0,.57.05a1.08,1.08,0,0,1,.49.08.87.87,0,0,1,.51.68,1.17,1.17,0,0,0,.83,1,1.12,1.12,0,0,0,.63,0,5.05,5.05,0,0,0,.55-.18A5.46,5.46,0,0,0,155.38,145.09Zm-15-36.36a1,1,0,0,1-.48-.1.88.88,0,0,1-.49-.7,1.16,1.16,0,0,0-.86-1,1.1,1.1,0,0,0-.63,0,5.05,5.05,0,0,0-.55.18,5.46,5.46,0,0,0,.57,0,1,1,0,0,1,.49.09.9.9,0,0,1,.52.68,1.16,1.16,0,0,0,.82,1,1.15,1.15,0,0,0,.64,0c.18-.06.36-.1.55-.18C140.73,108.75,140.54,108.75,140.35,108.73Z" style="fill:#fff"></path><path d="M156.5,128.54a40.07,40.07,0,0,0-6,.56c-1,.18-1.95.4-2.92.65-.48.12-1,.23-1.45.33a6.25,6.25,0,0,1-1.55.18c-.05,0-.05.07,0,.07a10.49,10.49,0,0,0,1.48.08,11.45,11.45,0,0,0,1.42-.17c1-.17,2-.39,3-.57,2-.37,4-.74,6.06-1C156.61,128.69,156.6,128.53,156.5,128.54Z" style="fill:#263238"></path><path d="M161.32,130.65a43.2,43.2,0,0,0-4.94-.58c-.83,0-1.65,0-2.48,0l-1.19.05c-.44,0-.87.11-1.3.13,0,0,0,.07,0,.07.41,0,.83.06,1.24.08l1.24,0,2.47.12c1.66.06,3.31.13,5,.25A.07.07,0,0,0,161.32,130.65Z" style="fill:#263238"></path><path d="M136.73,113.26c3.19,14,16.5,39.73,24.36,41.79,9.1,2.38,39.57-9.26,45.42-14.05,2.32-1.91-11.46-16.83-14.42-15.55-12.37,5.35-23.44,8.35-25.13,7.34-2.59-1.56-13.59-15.6-20.72-24.29C137.29,97.58,135.3,107,136.73,113.26Z" style="fill:#ad6359"></path><path d="M205.73,141.46c1.35-.57,10.48-8,13.1-11.38a41.65,41.65,0,0,0,6.67-11.74c2.46-6.72,3.52-11.6,2.72-13.71-.93-2.46-1.17-2.85-7.14,8.41-3.38,6.37-6.88,7.26-10,7.37a47.33,47.33,0,0,0-21.56,6.09S200.53,143.65,205.73,141.46Z" style="fill:#ad6359"></path><path d="M232.39,98.09l-14.54,21.37a1.8,1.8,0,0,1-1.89.71l-11.47-3.55a.88.88,0,0,1-.43-1.43L218.6,93.81a1.8,1.8,0,0,1,1.88-.71L232,96.66A.88.88,0,0,1,232.39,98.09Z" style="fill:#37474f"></path><path d="M231.24,96.44l-11.47-3.55a1.77,1.77,0,0,0-1.88.71L203.35,115a.88.88,0,0,0,.43,1.43L215.25,120a1.79,1.79,0,0,0,1.89-.71l14.54-21.37A.88.88,0,0,0,231.24,96.44Zm-14.37,21.92a1.68,1.68,0,0,1-1.74.69l-10.26-3.18c-.57-.17-.73-.77-.35-1.34l13.54-19.9c.78-1.15,1.28-1.06,1.86-.88l2.05.64c.12,0,.14.19,0,.34l0,.07c-.24.35,0,.42.24.5L227,96.78c.27.08.48.14.73-.21l0-.07a.43.43,0,0,1,.4-.21l2.06.64c.57.18.94.48.22,1.52Z" style="fill:#263238"></path><path d="M225.53,95.79l-1.3-.4s-.06,0,0-.09h0a.11.11,0,0,1,.13,0l1.29.4s.06.06,0,.1h0A.1.1,0,0,1,225.53,95.79Z" style="fill:#263238"></path><line x1="205.38" y1="113.27" x2="205.34" y2="113.26" style="fill:none"></line><path d="M230.4,98.45l-13.53,19.91a1.71,1.71,0,0,1-1.74.7l-10.26-3.19c-.57-.17-.73-.77-.35-1.34l13.54-19.9c.78-1.15,1.28-1.06,1.86-.88l2.05.64c.12,0,.14.19,0,.34l0,.07c-.24.35,0,.42.24.5L227,96.78c.27.08.48.14.73-.21l0-.07a.43.43,0,0,1,.4-.21l2.06.64C230.75,97.11,231.12,97.41,230.4,98.45Z" style="fill:#fff"></path><path d="M230.4,98.45l-1,1.49-12.34-3.82,1-1.49c.78-1.15,1.28-1.06,1.86-.88l2.05.64c.12,0,.14.19,0,.34l0,.07c-.24.35,0,.42.24.5L227,96.78c.27.08.48.14.73-.21l0-.07a.44.44,0,0,1,.41-.21l2.05.64C230.75,97.11,231.12,97.41,230.4,98.45Z" style="fill:#FFC727"></path><g id="freepik--u5zjqx--inject-108"><path d="M221.32,94.72l0,0h0a.25.25,0,0,0-.15-.13.4.4,0,0,0-.24,0h0v0h0l0,0H221a.17.17,0,0,1,.1,0h.1l.06,0,0,0,0,0v0Z" style="fill:#fff"></path><path d="M220.91,94.7l0,0a.35.35,0,0,1,.17,0,.19.19,0,0,1,.15.12l-.05,0a.13.13,0,0,0-.09-.09A.29.29,0,0,0,220.91,94.7Z" style="fill:#fff"></path><path d="M221.11,94.8l-.05,0s0,0-.05,0a.12.12,0,0,0-.08,0v0C221,94.71,221.09,94.73,221.11,94.8Z" style="fill:#fff"></path><path d="M221,94.83s0,0,0,0,0,0,0,0a0,0,0,0,1,.05,0A0,0,0,0,1,221,94.83Z" style="fill:#fff"></path></g><path d="M219.34,94.18a.14.14,0,0,1,.13-.05.07.07,0,0,1,0,.1.15.15,0,0,1-.14,0A.06.06,0,0,1,219.34,94.18Z" style="fill:#fff"></path><path d="M219.6,94.26a.14.14,0,0,1,.13-.05c.05,0,.06.06,0,.1a.12.12,0,0,1-.13,0A.06.06,0,0,1,219.6,94.26Z" style="fill:#fff"></path><path d="M219.86,94.34a.13.13,0,0,1,.13,0,.06.06,0,0,1,0,.1.14.14,0,0,1-.13,0A.06.06,0,0,1,219.86,94.34Z" style="fill:#fff"></path><path d="M220.11,94.42a.15.15,0,0,1,.14,0,.06.06,0,0,1,0,.1.14.14,0,0,1-.13,0A.07.07,0,0,1,220.11,94.42Z" style="fill:#fff"></path><path d="M220.37,94.5a.14.14,0,0,1,.13,0,.07.07,0,0,1,0,.1.15.15,0,0,1-.14,0A.06.06,0,0,1,220.37,94.5Z" style="fill:#fff"></path><path d="M229.84,97.63l-.66-.21.19-.28.66.21Zm-.61-.23.6.19.15-.22-.6-.18Z" style="fill:#fff"></path><polygon points="229.82 97.34 229.39 97.21 229.26 97.39 229.69 97.53 229.82 97.34" style="fill:#fff"></polygon><polygon points="229.95 97.58 229.89 97.56 229.99 97.42 230.05 97.43 229.95 97.58" style="fill:#fff"></polygon><path d="M216.19,104.12l-.37-.71a5,5,0,0,1,5,.11,2.75,2.75,0,0,1,.86,3.35l-1-.09a2.11,2.11,0,0,0-.66-2.57A3.89,3.89,0,0,0,216.19,104.12Z" style="fill:#FFC727"></path><polygon points="220.11 106.08 220.04 108.43 222.62 106.85 220.11 106.08" style="fill:#FFC727"></polygon><g style="opacity:0.2"><path d="M216.19,104.12l-.37-.71a5,5,0,0,1,5,.11,2.75,2.75,0,0,1,.86,3.35l-1-.09a2.11,2.11,0,0,0-.66-2.57A3.89,3.89,0,0,0,216.19,104.12Z"></path><polygon points="220.11 106.08 220.04 108.43 222.62 106.85 220.11 106.08"></polygon></g><path d="M214.2,109.29a2.77,2.77,0,0,1-.87-3.35l1,.09a2.11,2.11,0,0,0,.66,2.57,4,4,0,0,0,4.07,0l.44.69A5.15,5.15,0,0,1,214.2,109.29Z" style="fill:#FFC727"></path><polygon points="214.94 106.72 215.01 104.38 212.43 105.95 214.94 106.72" style="fill:#FFC727"></polygon><path d="M212.65,120.28c-3.17.22,6.79-6.79,6.75-10.42s-3.5-2.29-6.17-.09c-9.24,7.61-16.53,7.67-21,14.71S212.65,120.28,212.65,120.28Z" style="fill:#ad6359"></path><path d="M202.81,116.4a25.67,25.67,0,0,0-5.81,2.66,15.4,15.4,0,0,0-4.07,4.25c-.05.07,0,.16.1.09,2.43-3.34,6.2-5.16,9.81-6.91C202.89,116.47,202.87,116.38,202.81,116.4Z" style="fill:#263238"></path><path d="M167.59,131.88c2.51.53,19.45-5.14,19.45-5.14l11,22.84s-29.57,8.63-36.69,6.59S142,131,137.7,117.38c-4-12.79-.09-21.5,9.92-8.57C147.62,108.81,166.28,131.6,167.59,131.88Z" style="fill:#FFC727"></path><path d="M140.35,108.73a1,1,0,0,1-.48-.1.88.88,0,0,1-.49-.7,1.16,1.16,0,0,0-.86-1,1.1,1.1,0,0,0-.63,0,5.05,5.05,0,0,0-.55.18,5.46,5.46,0,0,0,.57,0,1,1,0,0,1,.49.09.9.9,0,0,1,.52.68,1.16,1.16,0,0,0,.82,1,1.15,1.15,0,0,0,.64,0c.18-.06.36-.1.55-.18C140.73,108.75,140.54,108.75,140.35,108.73Zm15,36.36a1,1,0,0,1-.48-.1.9.9,0,0,1-.5-.71,1.13,1.13,0,0,0-.86-1,1.11,1.11,0,0,0-.63,0c-.18.06-.36.1-.54.18.19,0,.38,0,.57.05a1.08,1.08,0,0,1,.49.08.87.87,0,0,1,.51.68,1.17,1.17,0,0,0,.83,1,1.12,1.12,0,0,0,.63,0,5.05,5.05,0,0,0,.55-.18A5.46,5.46,0,0,0,155.38,145.09Zm21.13,4.17a1,1,0,0,1-.48-.1.89.89,0,0,1-.49-.71,1.15,1.15,0,0,0-.87-1,1.21,1.21,0,0,0-.63,0c-.18.06-.36.1-.54.18.19,0,.38,0,.57.05a1.08,1.08,0,0,1,.49.08.87.87,0,0,1,.51.68,1.17,1.17,0,0,0,.83,1,1.12,1.12,0,0,0,.63,0c.19-.07.37-.11.55-.19A5.46,5.46,0,0,0,176.51,149.26Zm-28.17-24.74a1,1,0,0,1-.48-.1.86.86,0,0,1-.49-.71,1.17,1.17,0,0,0-.87-1,1.21,1.21,0,0,0-.63,0c-.18.06-.36.11-.54.18.19,0,.38,0,.57.05a1.07,1.07,0,0,1,.49.09.85.85,0,0,1,.51.68,1.17,1.17,0,0,0,.83,1,1.12,1.12,0,0,0,.63,0c.19-.06.37-.11.55-.18C148.72,124.54,148.53,124.54,148.34,124.52ZM165,132.41a1,1,0,0,1-.48-.1.88.88,0,0,1-.49-.71,1.16,1.16,0,0,0-.86-1,1.21,1.21,0,0,0-.63,0c-.18.06-.37.11-.55.18.19,0,.38,0,.58.05a1.07,1.07,0,0,1,.49.09.87.87,0,0,1,.51.68,1.15,1.15,0,0,0,.83,1,1,1,0,0,0,.63,0c.18-.06.37-.11.55-.18C165.41,132.43,165.22,132.43,165,132.41Zm24.16,9.51a1,1,0,0,1-.48-.1.88.88,0,0,1-.49-.71,1.16,1.16,0,0,0-.86-1,1.21,1.21,0,0,0-.63,0c-.18.06-.37.11-.55.18.19,0,.38,0,.58,0a1,1,0,0,1,.48.09.86.86,0,0,1,.52.68,1.15,1.15,0,0,0,.83,1,1,1,0,0,0,.63,0c.18-.06.37-.11.55-.18C189.57,141.94,189.38,141.94,189.19,141.92ZM158.26,121.6a3.41,3.41,0,0,0-.17.33,2.75,2.75,0,0,0,.26-.22Zm6.18,28.22a5.05,5.05,0,0,0-.18-.55c0,.19,0,.38,0,.57a1.08,1.08,0,0,1-.08.49.87.87,0,0,1-.68.51,1.19,1.19,0,0,0-1,.83,1.07,1.07,0,0,0,0,.64c.06.18.1.36.18.54a5.46,5.46,0,0,0,0-.57,1,1,0,0,1,.1-.48.89.89,0,0,1,.71-.49,1.15,1.15,0,0,0,1-.87A1.17,1.17,0,0,0,164.44,149.82Zm24.46-19.2-.15,0a1.11,1.11,0,0,0-1,1.46c.06.18.1.36.18.54,0-.19,0-.38,0-.57a.92.92,0,0,1,.1-.48.88.88,0,0,1,.7-.49,1,1,0,0,0,.29-.08Zm-9.51,6c-.06-.18-.11-.37-.18-.55,0,.19,0,.38-.05.58a1.07,1.07,0,0,1-.09.49.87.87,0,0,1-.68.51,1.15,1.15,0,0,0-1,.83,1,1,0,0,0,0,.63c.06.18.11.37.18.55,0-.2,0-.38.05-.58a1.06,1.06,0,0,1,.1-.48.88.88,0,0,1,.71-.49,1.16,1.16,0,0,0,1-.86A1.21,1.21,0,0,0,179.39,136.67Zm-28.59-24a.78.78,0,0,1-.59.37,1.16,1.16,0,0,0-1,.83,1.12,1.12,0,0,0,0,.63c.06.18.11.37.18.55,0-.2,0-.39.05-.58a1,1,0,0,1,.1-.48.88.88,0,0,1,.71-.49,1.15,1.15,0,0,0,.8-.5Zm-12.47,5.25a1,1,0,0,1-.37.25,3.58,3.58,0,0,1,.11.35,1.14,1.14,0,0,0,.44-.46c.08-.17.18-.33.26-.51A5.37,5.37,0,0,0,138.33,117.94Zm31,22.68a1,1,0,0,1-.41.27.87.87,0,0,1-.85-.15,1.15,1.15,0,0,0-1.29-.07,1.17,1.17,0,0,0-.42.47,4.89,4.89,0,0,0-.26.51c.16-.11.29-.25.44-.37a1.07,1.07,0,0,1,.41-.29.89.89,0,0,1,.84.12,1.14,1.14,0,0,0,1.28.11,1.12,1.12,0,0,0,.44-.45c.09-.18.19-.34.26-.52C169.6,140.37,169.47,140.5,169.32,140.62Zm18.11,8.93a1,1,0,0,1-.41.27.89.89,0,0,1-.85-.15,1.13,1.13,0,0,0-1.29-.07,1.14,1.14,0,0,0-.42.46c-.09.18-.19.34-.26.52.16-.12.29-.25.44-.37a1,1,0,0,1,.4-.29.89.89,0,0,1,.85.12,1.17,1.17,0,0,0,1.28.11,1.08,1.08,0,0,0,.44-.46c.08-.17.18-.33.26-.51C187.71,149.29,187.58,149.43,187.43,149.55Zm-33.88-15.83a1,1,0,0,1-.42.27.85.85,0,0,1-.84-.15,1.15,1.15,0,0,0-1.29-.07,1.2,1.2,0,0,0-.43.47c-.08.17-.18.33-.26.51a5.37,5.37,0,0,0,.44-.37,1.19,1.19,0,0,1,.41-.29.89.89,0,0,1,.84.12,1.15,1.15,0,0,0,1.29.11,1.18,1.18,0,0,0,.44-.45c.08-.18.18-.34.26-.52C153.83,133.47,153.69,133.6,153.55,133.72Z" style="fill:#fff"></path><path d="M183.33,153.4l-2.15.5" style="fill:#ebebeb"></path><path d="M171.14,131.43c.65-.15,1.35-.32,2.08-.51" style="fill:#ebebeb"></path><path d="M160.9,155.47c-6-2.67-14.12-18-15.68-21-1-1.92-1.92-3.88-2.83-5.84-1.82-3.94-3.52-7.93-5.14-12a.06.06,0,0,0-.11,0q1.41,4.68,3.29,9.22a34,34,0,0,1-2.11-3.46c0-.06-.13,0-.1,0a19.51,19.51,0,0,0,2.45,4c1.27,3,2.68,6,4.23,8.91.45.84,9.87,19.6,16.51,21,2.31.49,10.07-.5,11.7-1,.08,0,.09-.11,0-.11C170.87,155.49,163.05,156.43,160.9,155.47Z" style="fill:#263238"></path><path d="M191.37,147.11c-.33-.8-.67-1.58-1-2.37-.68-1.58-4.82-10.93-6.55-13.83,0-.08-.16,0-.13.07,1.06,3.22,5.4,12.44,6.13,14,.37.78.74,1.56,1.12,2.33s.85,1.51,1.23,2.29c0,.07.16,0,.13-.05C191.94,148.72,191.7,147.9,191.37,147.11Z" style="fill:#263238"></path><path d="M187,126.78c-1.42.14-14.13,3.85-16.93,4.64a5.8,5.8,0,0,1-2.09.41,3.07,3.07,0,0,1-1.75-1.17c-1-1-11.79-13.76-12.55-14.37-.29-.23-.52-.27-.23.14.49.7,11,13.29,11.95,14.28s1.71,1.88,3.1,1.74c.61,0,17.75-4.91,18.58-5.31A.19.19,0,0,0,187,126.78Z" style="fill:#263238"></path><path d="M142.66,99.29c.1,1.25,5.91,7,9.68,7.21,1.94.13-.8-6.47-.8-6.47l.15-.49,2-6.83-8.92-6.56S142.63,98.93,142.66,99.29Z" style="fill:#ad6359"></path><path d="M144,90.92a14.35,14.35,0,0,0,7.7,8.63l2-6.84-8.94-6.56S144.41,88.33,144,90.92Z" style="fill:#263238"></path><path d="M165,83.06c-.33,12.51-7.85,13.73-10.55,13.66-2.45-.07-10.77-.6-11.75-13.08s5-16.27,10.55-16.42S165.29,70.56,165,83.06Z" style="fill:#ad6359"></path><path d="M163.13,80.13a7.93,7.93,0,0,1-.83-.25,1.32,1.32,0,0,1-.79-.41.44.44,0,0,1,0-.54,1.11,1.11,0,0,1,1.11-.17,1.69,1.69,0,0,1,1,.66A.48.48,0,0,1,163.13,80.13Z" style="fill:#263238"></path><path d="M154.76,79.46a8.43,8.43,0,0,0,.86-.11,1.35,1.35,0,0,0,.85-.27.45.45,0,0,0,.05-.54,1.11,1.11,0,0,0-1.07-.35,1.63,1.63,0,0,0-1.06.48A.48.48,0,0,0,154.76,79.46Z" style="fill:#263238"></path><path d="M156.15,82.75s-.06,0-.07.07c0,.85-.19,1.82-1,2.06,0,0,0,.05,0,0C156.05,84.85,156.27,83.56,156.15,82.75Z" style="fill:#263238"></path><path d="M155.45,81.81c-1.36-.19-1.64,2.55-.38,2.72S156.59,82,155.45,81.81Z" style="fill:#263238"></path><path d="M154.9,81.9c-.26.13-.52.38-.81.38s-.56-.31-.75-.61c0,0-.05,0-.05,0a1,1,0,0,0,.64,1.22c.51.12.92-.31,1.11-.82C155.07,82,155,81.85,154.9,81.9Z" style="fill:#263238"></path><path d="M161.22,83.1s.07.05.06.08c-.12.85-.11,1.83.62,2.2,0,0,0,.05,0,0C161,85.19,161,83.88,161.22,83.1Z" style="fill:#263238"></path><path d="M162.08,82.3c1.37,0,1.18,2.79-.09,2.75S160.92,82.26,162.08,82.3Z" style="fill:#263238"></path><path d="M162.64,82.52c.2.16.4.44.66.47s.54-.24.75-.51c0,0,0,0,0,0,0,.53-.23,1.06-.74,1.13s-.78-.41-.87-.94C162.47,82.6,162.55,82.45,162.64,82.52Z" style="fill:#263238"></path><path d="M155.44,89.38c.13.26.23.58.52.71a2.27,2.27,0,0,0,.94.09,0,0,0,0,1,0,0,1.16,1.16,0,0,1-1.18.09.9.9,0,0,1-.39-.92C155.35,89.34,155.42,89.35,155.44,89.38Z" style="fill:#263238"></path><path d="M159.57,86.73s.06,1.29,0,1.88a3.21,3.21,0,0,1-3.05-1.24c0-.06.05-.12.1-.07a4.36,4.36,0,0,0,2.53,1c.06-.16-.18-2.19-.09-2.19a5.35,5.35,0,0,1,1.33.42c-.05-2.67-.53-5.32-.55-8,0-.1.14-.11.16,0a43,43,0,0,1,1,8.58C161,87.41,159.8,86.86,159.57,86.73Z" style="fill:#263238"></path><path d="M158.77,88.48a3.06,3.06,0,0,1-1.34.82,1.38,1.38,0,0,1-.85,0C156,89,156,88.48,156.2,88a3.26,3.26,0,0,1,.35-.7A4,4,0,0,0,158.77,88.48Z" style="fill:#263238"></path><path d="M157.43,89.3a1.38,1.38,0,0,1-.85,0C156,89,156,88.48,156.2,88A1.43,1.43,0,0,1,157.43,89.3Z" style="fill:#ff9abb"></path><path d="M143.41,83.38c2.27.59,3.56-4.64,3.56-4.64s10.09-.38,12-8.3a13.73,13.73,0,0,0,5.89,8.33s.81-8.85-6-11.47c0,0-8.26-4.29-14,2S141.88,83,143.41,83.38Z" style="fill:#263238"></path><path d="M159.06,69.85a9,9,0,0,1-.92,3.61,9.19,9.19,0,0,1-2.29,3c-.23.22-.5.38-.75.58l-.39.28-.41.23c-.28.15-.55.31-.84.44l-.88.34-.44.16-.46.11-.91.22c-.62.09-1.24.14-1.85.19.59-.17,1.2-.28,1.79-.46l.86-.29.44-.14.41-.19.83-.38c.26-.14.52-.31.78-.46l.38-.23.36-.27a6.48,6.48,0,0,0,.71-.56,11.07,11.07,0,0,0,3.05-4.42A10.81,10.81,0,0,0,159.06,69.85Z" style="fill:#263238"></path><path d="M144.93,83.1s-2.27-4.18-4.14-3.41-.47,6.62,1.51,7.62a2.12,2.12,0,0,0,2.95-.81Z" style="fill:#ad6359"></path><path d="M141.23,81.36s0,0,0,0A5.34,5.34,0,0,1,143.59,85a1.17,1.17,0,0,0-1.7-.51,0,0,0,0,0,0,.08,1.3,1.3,0,0,1,1.37.62,6.4,6.4,0,0,1,.55,1.22c0,.14.3.1.26-.06v0C144.34,84.51,143.2,81.77,141.23,81.36Z" style="fill:#263238"></path><path d="M142.59,86.88a.55.55,0,0,0,.61.45.54.54,0,1,0-.16-1.06A.54.54,0,0,0,142.59,86.88Z" style="fill:#455a64"></path><path d="M142.87,86.84a.25.25,0,1,0,.21-.29A.25.25,0,0,0,142.87,86.84Z" style="fill:#263238"></path><path d="M141.73,86.12a.38.38,0,0,0,.43.32.38.38,0,1,0-.11-.75A.38.38,0,0,0,141.73,86.12Z" style="fill:#455a64"></path></g></svg>